<?xml version="1.0" encoding="utf-8"?>
<!-- Generator: Adobe Illustrator 22.0.0, SVG Export Plug-In . SVG Version: 6.00 Build 0)  -->
<svg version="1.1" id="Layer_2" xmlns="http://www.w3.org/2000/svg" xmlns:xlink="http://www.w3.org/1999/xlink" x="0px" y="0px"
	 width="200px" height="200px" viewBox="0 0 250 250" style="enable-background:new 0 0 250 250;" xml:space="preserve">
<style type="text/css">
	.st0{fill:#E6E6E6;}
	.st1{fill:#999999;}
	.st2{fill:#F2F2F2;}
	.st3{fill:none;stroke:#FF0000;stroke-width:1.1793;stroke-miterlimit:10;}
	.st4{fill:none;stroke:#FF0000;stroke-width:1.0196;stroke-miterlimit:10;}
	.st5{fill:#FF0000;}
</style>
<rect x="-229.9" y="0.5" transform="matrix(0.9821 0.1882 -0.1882 0.9821 40.0941 6.823)" class="st0" width="428.1" height="428.1"/>
<g>
	
		<rect x="-176.4" y="54" transform="matrix(0.1882 -0.9821 0.9821 0.1882 -223.552 158.5309)" class="st1" width="321.1" height="321.1"/>
</g>
<rect x="-149.6" y="80.7" transform="matrix(0.9821 0.1882 -0.1882 0.9821 40.0941 6.823)" class="st2" width="267.5" height="267.5"/>
<line class="st3" x1="136.1" y1="132.4" x2="214.9" y2="147.2"/>
<line class="st4" x1="136.7" y1="129.5" x2="135.6" y2="135.3"/>
<line class="st4" x1="215.4" y1="144.3" x2="214.3" y2="150.1"/>
<g>
	<path class="st5" d="M165.5,153l-1.6-0.3l-0.4,2.3l-1.4-0.3l0.4-2.3l-4.5-0.8l0.2-0.9l5.2-5.2l1.8,0.3l-1.1,5.7l1.6,0.3L165.5,153z
		 M159.7,150.7l3,0.6l0.6-3.1l0.3-1.5l0,0c-0.3,0.4-0.7,0.9-1.2,1.4L159.7,150.7z"/>
	<path class="st5" d="M172.2,153.6l-4.7-0.9l0.3-1.4l4.7,0.9L172.2,153.6z"/>
	<path class="st5" d="M181,149.1c0.4,0.4,0.7,1,0.9,1.7l-1.4,0.4c-0.1-0.9-0.6-1.5-1.5-1.6c-0.4-0.1-0.9,0-1.3,0.2s-0.7,0.6-1,1.1
		c-0.3,0.5-0.5,1.1-0.6,1.8l0,0.3l0.1,0c0.2-0.5,0.6-0.8,1.1-1c0.5-0.2,1-0.2,1.6-0.1c0.6,0.1,1.1,0.3,1.5,0.7
		c0.4,0.3,0.7,0.7,0.9,1.2c0.2,0.5,0.2,1,0.1,1.6c-0.2,0.9-0.6,1.6-1.3,2s-1.5,0.5-2.5,0.4c-1.2-0.2-2-0.8-2.4-1.8
		c-0.5-1-0.6-2.2-0.3-3.6c0.2-1,0.5-1.8,1-2.5s1-1.1,1.6-1.4c0.6-0.3,1.3-0.3,2-0.2C180,148.4,180.6,148.7,181,149.1z M176.9,153.3
		c-0.4,0.2-0.6,0.6-0.7,1.1c-0.1,0.5,0,1,0.3,1.3c0.3,0.4,0.7,0.6,1.2,0.7c0.6,0.1,1,0,1.4-0.2c0.4-0.2,0.6-0.6,0.7-1.2
		c0.1-0.5,0-1-0.2-1.3c-0.3-0.4-0.7-0.6-1.2-0.7C177.7,153,177.2,153,176.9,153.3z"/>
</g>
<g>
	<path d="M153.9,162.7l-0.2,0.9l-4.6-0.9l1.1-6.1l4.4,0.8l-0.2,0.9l-3.4-0.6l-0.3,1.8l2.7,0.5l-0.2,0.8l-2.7-0.5l-0.3,1.8
		L153.9,162.7z"/>
	<path d="M159.4,163.9l-0.2,0.7c-0.2,0-0.4,0-0.6,0c-0.3,0-0.5-0.1-0.6-0.3c-0.1-0.1-0.2-0.3-0.2-0.6c-0.2,0.2-0.4,0.3-0.7,0.4
		c-0.3,0.1-0.6,0.1-1,0c-0.5-0.1-0.8-0.3-1-0.5c-0.2-0.3-0.3-0.6-0.2-1c0.1-0.4,0.3-0.6,0.6-0.8c0.3-0.2,0.8-0.3,1.5-0.3l1.2,0
		l0-0.2c0.1-0.3,0-0.5-0.1-0.7c-0.1-0.2-0.4-0.3-0.6-0.4c-0.6-0.1-1.1,0.1-1.4,0.6l-0.7-0.6c0.2-0.3,0.5-0.6,0.8-0.8
		s0.8-0.2,1.3-0.1c0.6,0.1,1.1,0.3,1.3,0.7c0.3,0.3,0.4,0.8,0.3,1.3l-0.4,2.1c0,0.1,0,0.2,0,0.3c0,0.1,0.1,0.1,0.2,0.1
		C159.2,163.9,159.3,163.9,159.4,163.9z M157.4,163.3c0.3-0.1,0.5-0.3,0.5-0.6l0.1-0.6l-1,0c-0.3,0-0.6,0-0.8,0.1
		c-0.2,0.1-0.3,0.2-0.3,0.4c0,0.2,0,0.3,0.1,0.4s0.3,0.2,0.5,0.2C156.8,163.4,157.1,163.4,157.4,163.3z"/>
	<path d="M164.9,162l-1,0.2c-0.1-0.6-0.4-1-0.9-1.1c-0.4-0.1-0.8,0-1,0.2c-0.3,0.2-0.5,0.6-0.6,1.1c-0.1,0.5-0.1,0.9,0.1,1.3
		c0.2,0.3,0.5,0.5,0.9,0.6c0.3,0.1,0.6,0,0.8-0.1c0.2-0.1,0.4-0.3,0.5-0.6l0.9,0.5c-0.2,0.4-0.5,0.7-0.9,0.9s-0.9,0.2-1.4,0.1
		c-0.7-0.1-1.3-0.5-1.6-1c-0.3-0.5-0.4-1.1-0.3-1.9c0.1-0.8,0.5-1.3,0.9-1.7c0.5-0.4,1.1-0.5,1.8-0.3
		C164.1,160.6,164.7,161.1,164.9,162z"/>
	<path d="M170,162.1c0.3,0.4,0.4,0.8,0.2,1.4l-0.6,3l-1-0.2l0.5-2.7c0.2-0.8-0.1-1.3-0.8-1.4c-0.3-0.1-0.7,0-1,0.2s-0.5,0.5-0.6,1
		l-0.5,2.4l-1-0.2l1.3-6.7l1,0.2l-0.5,2.8c0.2-0.3,0.5-0.4,0.7-0.5c0.3-0.1,0.6-0.1,0.9,0C169.3,161.5,169.7,161.8,170,162.1z"/>
	<path d="M174.7,167.3c-0.3-0.2-0.6-0.5-0.7-0.9l0.8-0.5c0.1,0.3,0.2,0.5,0.4,0.7c0.2,0.2,0.5,0.3,0.9,0.4c0.3,0.1,0.6,0.1,0.8,0
		c0.2-0.1,0.3-0.2,0.3-0.4c0-0.1,0-0.3-0.2-0.4c-0.1-0.1-0.4-0.3-0.8-0.4c-0.7-0.3-1.1-0.5-1.4-0.8c-0.2-0.3-0.3-0.6-0.2-1
		c0-0.3,0.2-0.5,0.4-0.7c0.2-0.2,0.5-0.3,0.8-0.4c0.3-0.1,0.7-0.1,1.1,0c0.5,0.1,0.9,0.3,1.2,0.5c0.3,0.2,0.5,0.5,0.6,0.9l-0.8,0.4
		c-0.1-0.3-0.2-0.5-0.4-0.7c-0.2-0.2-0.4-0.3-0.7-0.3c-0.3-0.1-0.5,0-0.7,0c-0.2,0.1-0.3,0.2-0.3,0.3c0,0.2,0,0.3,0.2,0.4
		c0.1,0.1,0.4,0.3,0.8,0.4c0.6,0.2,1.1,0.5,1.3,0.8c0.2,0.3,0.3,0.6,0.2,1c-0.1,0.4-0.3,0.7-0.7,0.9c-0.4,0.2-0.9,0.2-1.6,0.1
		C175.4,167.7,175,167.5,174.7,167.3z"/>
	<path d="M180.1,168.4l-1-0.2l0.9-4.6l1,0.2L180.1,168.4z M180.2,162.7c-0.1-0.1-0.1-0.3-0.1-0.5c0-0.2,0.1-0.3,0.3-0.4
		c0.1-0.1,0.3-0.1,0.5-0.1c0.2,0,0.4,0.1,0.5,0.2c0.1,0.1,0.1,0.3,0.1,0.5c0,0.2-0.1,0.3-0.3,0.4c-0.1,0.1-0.3,0.1-0.5,0.1
		C180.4,162.9,180.3,162.8,180.2,162.7z"/>
	<path d="M187.2,162.8l-1.3,6.7l-0.9-0.2l0.1-0.8c-0.2,0.3-0.4,0.4-0.7,0.6c-0.3,0.1-0.6,0.1-1,0.1c-0.6-0.1-1.1-0.4-1.4-0.9
		c-0.3-0.5-0.4-1.1-0.2-1.9c0.1-0.8,0.4-1.3,0.9-1.7c0.4-0.4,1-0.5,1.6-0.4c0.3,0.1,0.6,0.2,0.9,0.4c0.2,0.2,0.4,0.4,0.5,0.7
		l0.5-2.8L187.2,162.8z M184.8,168.2c0.3-0.2,0.5-0.6,0.6-1.1l0-0.1c0.1-0.5,0-0.9-0.1-1.2c-0.2-0.3-0.5-0.5-0.9-0.6
		c-0.4-0.1-0.7,0-1,0.2c-0.3,0.2-0.5,0.6-0.6,1.1s-0.1,0.9,0.1,1.2c0.2,0.3,0.5,0.5,0.9,0.6C184.2,168.5,184.5,168.4,184.8,168.2z"
		/>
	<path d="M192,168.6l-3.4-0.6c0,0.4,0.1,0.8,0.3,1c0.2,0.3,0.5,0.4,0.8,0.5c0.3,0.1,0.6,0,0.8,0c0.2-0.1,0.4-0.2,0.5-0.4l0.8,0.5
		c-0.5,0.7-1.2,0.9-2.2,0.7c-0.7-0.1-1.3-0.5-1.6-1s-0.4-1.1-0.3-1.9c0.1-0.8,0.5-1.3,0.9-1.7s1.1-0.5,1.8-0.3
		c0.7,0.1,1.2,0.4,1.5,0.9c0.3,0.5,0.4,1.1,0.3,1.8C192.1,168.3,192,168.5,192,168.6z M189.3,166.4c-0.3,0.2-0.5,0.4-0.6,0.8
		l2.5,0.5c0-0.4-0.1-0.7-0.2-1c-0.2-0.3-0.4-0.4-0.8-0.5C189.9,166.2,189.5,166.2,189.3,166.4z"/>
</g>
<g>
	<path d="M134.9,61.8c0.4,0,0.7-0.2,0.9-0.3l0.2,1.6c-0.3,0.2-0.7,0.3-1.2,0.3c-0.5,0-1,0-1.5-0.1c-1-0.2-1.7-0.6-2.2-1.2
		s-0.7-1.5-0.5-2.6c-1.4-0.4-2.3-1.2-3-2.3s-0.8-2.5-0.5-4.1c0.2-1.2,0.6-2.1,1.2-2.9c0.6-0.8,1.3-1.3,2.2-1.6s1.8-0.4,2.9-0.2
		s1.9,0.6,2.6,1.2c0.7,0.6,1.2,1.4,1.4,2.3c0.3,0.9,0.3,2,0.1,3.1c-0.3,1.6-1,2.9-1.9,3.7c-1,0.8-2.2,1.2-3.6,1.1
		c-0.1,0.6,0.1,1.1,0.4,1.3c0.3,0.3,0.7,0.5,1.3,0.6C134.2,61.8,134.5,61.8,134.9,61.8z M129.4,56.6c0.5,0.8,1.2,1.3,2.2,1.5
		c1,0.2,1.9,0,2.7-0.6c0.7-0.6,1.2-1.6,1.5-2.9c0.2-1.3,0.1-2.4-0.3-3.2c-0.5-0.8-1.2-1.3-2.3-1.5c-1-0.2-1.9,0-2.6,0.6
		c-0.7,0.6-1.2,1.6-1.5,2.9C128.8,54.7,128.9,55.8,129.4,56.6z"/>
	<path d="M148.1,54.1l-1.6,8.3l-1.6-0.3l0.2-1.4c-0.8,0.9-1.8,1.2-3.3,1c-0.9-0.2-1.6-0.6-2-1.1c-0.5-0.6-0.6-1.4-0.4-2.4l1-5.5
		l1.8,0.3l-0.9,5c-0.1,0.7-0.1,1.3,0.1,1.6s0.6,0.6,1.2,0.7c0.7,0.1,1.3,0,1.8-0.3s0.9-0.9,1-1.8l0.8-4.5L148.1,54.1z"/>
	<path d="M151.1,63.3l-1.8-0.3l1.6-8.3l1.8,0.3L151.1,63.3z M151.2,52.9c-0.2-0.2-0.2-0.5-0.2-0.9c0.1-0.4,0.2-0.6,0.5-0.8
		c0.2-0.1,0.6-0.2,0.9-0.1c0.4,0.1,0.7,0.2,0.8,0.4c0.2,0.2,0.2,0.5,0.2,0.9c-0.1,0.4-0.2,0.6-0.5,0.8c-0.2,0.2-0.6,0.2-0.9,0.1
		S151.4,53.1,151.2,52.9z"/>
	<path d="M156.1,61.7c-0.1,0.4-0.1,0.7,0,0.9c0.1,0.2,0.3,0.3,0.6,0.4c0.2,0,0.4,0.1,0.5,0.1c0.2,0,0.4,0,0.6-0.1l-0.5,1.4
		c-0.4,0.1-0.9,0.1-1.4,0c-0.7-0.1-1.3-0.4-1.5-0.9c-0.3-0.4-0.3-1.1-0.2-1.9l1.9-9.9l1.8,0.3L156.1,61.7z"/>
	<path d="M164.3,65.1c-0.3,0.2-0.7,0.3-1.1,0.3c-0.4,0.1-0.8,0-1.3,0c-0.8-0.1-1.3-0.5-1.7-0.9c-0.4-0.5-0.5-1.1-0.4-1.9l0.9-4.7
		l-1.6-0.3l0.3-1.4l1.6,0.3l0.4-2l1.9-0.2l-0.5,2.5l2.9,0.5l-0.3,1.4l-2.9-0.5l-0.8,4.4c-0.1,0.4,0,0.7,0.2,1
		c0.2,0.2,0.5,0.4,0.8,0.5c0.5,0.1,1,0,1.5-0.3L164.3,65.1z"/>
	<path d="M173.6,56.1l4.3,0.8c1.3,0.2,2.2,0.7,2.7,1.3c0.5,0.6,0.7,1.4,0.5,2.4c-0.1,0.6-0.4,1.1-0.8,1.5c-0.4,0.4-1,0.6-1.6,0.6
		l0,0c0.7,0.2,1.2,0.6,1.5,1.2c0.3,0.5,0.4,1.1,0.3,1.8c-0.2,1-0.7,1.6-1.5,2c-0.8,0.4-1.8,0.5-3.1,0.3l-4.4-0.8L173.6,56.1z
		 M176.3,66.4c0.7,0.1,1.2,0.1,1.6-0.1c0.4-0.2,0.7-0.6,0.8-1.1c0.1-0.5,0-1-0.3-1.3c-0.3-0.4-0.8-0.6-1.5-0.7l-2.7-0.5l-0.6,3.3
		L176.3,66.4z M176.9,61.6c1.4,0.3,2.2-0.1,2.4-1.2c0.2-1.1-0.4-1.8-1.8-2l-2.5-0.5l-0.6,3.2L176.9,61.6z"/>
	<path d="M190.4,69.3l-0.3,1.2c-0.3,0.1-0.7,0.1-1.1,0c-0.5-0.1-0.8-0.3-1.1-0.5c-0.2-0.2-0.4-0.6-0.4-1.1c-0.3,0.3-0.8,0.6-1.3,0.7
		c-0.5,0.1-1.1,0.1-1.7,0c-0.8-0.2-1.4-0.5-1.9-0.9c-0.4-0.5-0.6-1.1-0.4-1.8c0.1-0.7,0.5-1.2,1.1-1.5c0.6-0.3,1.5-0.5,2.6-0.5
		l2.2,0l0.1-0.5c0.1-0.5,0-0.9-0.2-1.3s-0.6-0.6-1.2-0.7c-1.1-0.2-1.9,0.2-2.4,1.1l-1.2-1c0.3-0.6,0.8-1.1,1.5-1.4
		c0.7-0.3,1.5-0.3,2.4-0.2c1.1,0.2,1.9,0.6,2.4,1.2c0.5,0.6,0.7,1.4,0.5,2.4l-0.7,3.8c0,0.2,0,0.4,0.1,0.5c0.1,0.1,0.2,0.2,0.4,0.2
		C190,69.3,190.2,69.3,190.4,69.3z M186.8,68.2c0.5-0.2,0.8-0.5,0.9-1l0.2-1l-1.9,0c-0.6,0-1.1,0.1-1.4,0.2
		c-0.3,0.1-0.5,0.4-0.6,0.7c-0.1,0.3,0,0.6,0.2,0.8c0.2,0.2,0.5,0.3,0.9,0.4C185.7,68.5,186.2,68.4,186.8,68.2z"/>
	<path d="M200.3,66l-1.8,0.4c-0.1-1.1-0.6-1.8-1.7-2c-0.7-0.1-1.4,0-1.9,0.4c-0.5,0.4-0.8,1.1-1,2.1c-0.2,0.9-0.1,1.7,0.2,2.3
		c0.3,0.6,0.8,0.9,1.6,1.1c0.6,0.1,1,0.1,1.4-0.2c0.4-0.2,0.7-0.6,0.9-1.1l1.5,0.9c-0.4,0.7-0.9,1.3-1.6,1.6
		c-0.7,0.3-1.5,0.4-2.5,0.2c-1.3-0.2-2.3-0.8-2.9-1.7c-0.6-0.9-0.8-2-0.5-3.4c0.3-1.4,0.8-2.4,1.7-3c0.9-0.6,2-0.8,3.3-0.6
		C198.9,63.4,200,64.4,200.3,66z"/>
	<path d="M205.4,69.3l-2,1.4l-0.4,2.2l-1.8-0.3l2.3-12.1l1.8,0.3l-1.5,7.8l4.8-3.3l2.1,0.4l-3.8,2.7l2.4,5.7l-2.1-0.4L205.4,69.3z"
		/>
</g>
<g>
	<path d="M76.8,76.9l4.3,0.8c1.3,0.2,2.2,0.7,2.7,1.3c0.5,0.6,0.7,1.4,0.5,2.4c-0.1,0.6-0.4,1.1-0.8,1.5c-0.4,0.4-1,0.6-1.6,0.6l0,0
		c0.7,0.2,1.2,0.6,1.5,1.2c0.3,0.5,0.4,1.1,0.3,1.8c-0.2,1-0.7,1.6-1.5,2c-0.8,0.4-1.8,0.5-3.1,0.3l-4.4-0.8L76.8,76.9z M79.5,87.2
		c0.7,0.1,1.2,0.1,1.6-0.1c0.4-0.2,0.7-0.6,0.8-1.1c0.1-0.5,0-1-0.3-1.3c-0.3-0.4-0.8-0.6-1.5-0.7l-2.7-0.5l-0.6,3.3L79.5,87.2z
		 M80.1,82.4c1.4,0.3,2.2-0.1,2.4-1.2c0.2-1.1-0.4-1.8-1.8-2l-2.5-0.5l-0.6,3.2L80.1,82.4z"/>
	<path d="M93.6,90.1l-0.3,1.2c-0.3,0.1-0.7,0.1-1.1,0c-0.5-0.1-0.8-0.3-1.1-0.5c-0.2-0.2-0.4-0.6-0.4-1.1c-0.3,0.3-0.8,0.6-1.3,0.7
		c-0.5,0.1-1.1,0.1-1.7,0c-0.8-0.2-1.4-0.5-1.9-0.9c-0.4-0.5-0.6-1.1-0.4-1.8c0.1-0.7,0.5-1.2,1.1-1.5c0.6-0.3,1.5-0.5,2.6-0.5
		l2.2,0l0.1-0.5c0.1-0.5,0-0.9-0.2-1.3c-0.2-0.4-0.6-0.6-1.2-0.7c-1.1-0.2-1.9,0.2-2.4,1.1l-1.2-1c0.3-0.6,0.8-1.1,1.5-1.4
		c0.7-0.3,1.5-0.3,2.4-0.2c1.1,0.2,1.9,0.6,2.4,1.2c0.5,0.6,0.7,1.4,0.5,2.4l-0.7,3.8c0,0.2,0,0.4,0.1,0.5c0.1,0.1,0.2,0.2,0.4,0.2
		C93.2,90.1,93.4,90.1,93.6,90.1z M90,89.1c0.5-0.2,0.8-0.5,0.9-1l0.2-1l-1.9,0c-0.6,0-1.1,0.1-1.4,0.2c-0.3,0.1-0.5,0.4-0.6,0.7
		c-0.1,0.3,0,0.6,0.2,0.8c0.2,0.2,0.5,0.3,0.9,0.4C88.9,89.3,89.5,89.3,90,89.1z"/>
	<path d="M106.3,93.2c-0.3,0.2-0.7,0.3-1.1,0.3c-0.4,0.1-0.8,0-1.3,0c-0.8-0.1-1.3-0.4-1.7-0.9c-0.4-0.5-0.5-1.1-0.4-1.9l0.9-4.7
		l-4.3-0.8l-0.8,4.4c-0.1,0.4,0,0.7,0.1,1c0.2,0.2,0.4,0.4,0.8,0.5c0.5,0.1,1,0,1.4-0.3l0.2,1.4c-0.3,0.2-0.7,0.3-1.1,0.3
		c-0.4,0.1-0.8,0-1.3,0c-0.8-0.1-1.3-0.4-1.7-0.9s-0.5-1.1-0.4-1.9l0.9-4.7l-1.6-0.3l0.3-1.4l1.6,0.3l0.4-2l1.9-0.2l-0.5,2.5
		l4.3,0.8l0.4-2l1.9-0.2l-0.5,2.5l2.9,0.5l-0.3,1.4l-2.9-0.5l-0.8,4.4c-0.1,0.4,0,0.7,0.2,1c0.2,0.2,0.5,0.4,0.8,0.5
		c0.3,0.1,0.5,0.1,0.8,0c0.2,0,0.5-0.1,0.7-0.3L106.3,93.2z"/>
	<path d="M109.6,94.4l-1.8-0.3l1.6-8.3l1.8,0.3L109.6,94.4z M109.7,84c-0.2-0.2-0.2-0.5-0.2-0.9c0.1-0.4,0.2-0.6,0.5-0.8
		c0.2-0.1,0.6-0.2,0.9-0.1c0.4,0.1,0.7,0.2,0.8,0.4c0.2,0.2,0.2,0.5,0.2,0.9c-0.1,0.4-0.2,0.6-0.5,0.8c-0.2,0.2-0.6,0.2-0.9,0.1
		C110.2,84.4,109.9,84.3,109.7,84z"/>
	<path d="M120.6,88.5c0.5,0.6,0.6,1.5,0.4,2.5l-1,5.4l-1.8-0.3l0.9-4.8c0.3-1.5-0.2-2.3-1.4-2.5c-0.6-0.1-1.2,0-1.7,0.3
		c-0.5,0.3-0.9,1-1,1.9l-0.8,4.4l-1.8-0.3l1.6-8.3l1.6,0.3l-0.2,1.4c0.4-0.5,0.8-0.8,1.4-1c0.5-0.2,1.1-0.2,1.7-0.1
		C119.4,87.4,120.1,87.8,120.6,88.5z"/>
	<path d="M129.7,97.4c0.4,0.5,0.5,1,0.4,1.7c-0.1,0.6-0.4,1-0.8,1.4c-0.4,0.3-1,0.6-1.7,0.7c-0.7,0.1-1.4,0.1-2.3-0.1
		c-1.3-0.2-2.3-0.6-2.9-1.1c-0.6-0.5-0.8-1.1-0.7-1.7c0.1-0.4,0.3-0.7,0.6-0.9c0.3-0.2,0.7-0.4,1.2-0.4c-0.3-0.2-0.6-0.5-0.7-0.8
		c-0.2-0.3-0.2-0.6-0.1-1c0.2-0.8,0.7-1.3,1.6-1.4c-0.4-0.3-0.6-0.7-0.8-1.1c-0.1-0.4-0.2-0.9-0.1-1.4c0.1-0.6,0.3-1,0.7-1.4
		c0.4-0.4,0.9-0.6,1.5-0.8c0.6-0.1,1.2-0.1,2,0c0.6,0.1,1.2,0.3,1.6,0.6c0.3-0.6,0.6-1,1.1-1.2c0.5-0.2,1-0.3,1.7-0.2l0,1.4
		c-0.5-0.1-1-0.1-1.3,0c-0.4,0.1-0.6,0.3-0.8,0.5c0.3,0.3,0.5,0.7,0.7,1.1c0.1,0.4,0.2,0.8,0.1,1.3c-0.2,0.9-0.6,1.5-1.4,1.9
		c-0.8,0.4-1.7,0.5-2.8,0.3c-0.5-0.1-1-0.2-1.4-0.4c-0.3,0-0.5,0.1-0.7,0.2s-0.3,0.3-0.3,0.6c0,0.3,0,0.5,0.2,0.6
		c0.2,0.2,0.4,0.3,0.7,0.4l2.8,0.5C128.7,96.6,129.3,96.9,129.7,97.4z M127.7,99.7c0.5-0.1,0.8-0.4,0.8-0.7c0.1-0.3,0-0.5-0.2-0.7
		c-0.2-0.2-0.6-0.3-1.1-0.4l-2.3-0.4c-0.5-0.1-0.9-0.1-1.2,0c-0.3,0.1-0.4,0.3-0.5,0.6c-0.1,0.4,0.1,0.7,0.5,1
		c0.4,0.3,1,0.5,1.9,0.7C126.6,99.9,127.2,99.9,127.7,99.7z M126,90.4c-0.4,0.2-0.6,0.6-0.7,1c-0.1,0.5,0,0.9,0.3,1.2
		c0.3,0.4,0.7,0.6,1.2,0.7c0.5,0.1,1,0,1.4-0.2c0.4-0.2,0.6-0.6,0.7-1s0-0.9-0.3-1.2c-0.3-0.4-0.7-0.6-1.2-0.7
		C126.8,90.1,126.4,90.2,126,90.4z"/>
</g>
<g>
	<path d="M31.7,155.7c0.4-0.1,0.6-0.3,0.8-0.5l0.5,1.5c-0.3,0.2-0.6,0.4-1.1,0.6s-1,0.2-1.5,0.2c-1,0-1.8-0.3-2.4-0.8
		c-0.6-0.5-0.9-1.3-1-2.4c-1.4-0.2-2.5-0.7-3.3-1.8c-0.8-1-1.2-2.3-1.2-4c0-1.2,0.2-2.2,0.6-3.1s1-1.5,1.8-2
		c0.8-0.5,1.7-0.7,2.8-0.7c1.1,0,2,0.2,2.8,0.7c0.8,0.5,1.4,1.1,1.8,2c0.4,0.9,0.6,1.9,0.6,3.1c0,1.7-0.4,3-1.2,4
		c-0.8,1-1.9,1.6-3.4,1.7c0.1,0.6,0.3,1,0.6,1.2c0.3,0.2,0.8,0.3,1.4,0.3C31,155.9,31.4,155.8,31.7,155.7z M25.3,151.7
		c0.6,0.7,1.4,1.1,2.5,1.1c1.1,0,1.9-0.4,2.5-1.1c0.6-0.7,0.9-1.8,0.9-3.1s-0.3-2.4-0.9-3.1c-0.6-0.7-1.4-1.1-2.5-1.1
		c-1.1,0-1.9,0.4-2.5,1.1c-0.6,0.7-0.9,1.8-0.9,3.1S24.7,150.9,25.3,151.7z"/>
	<path d="M43.3,145.7l0,8.5l-1.6,0l-0.1-1.4c-0.6,1-1.6,1.5-3,1.5c-0.9,0-1.7-0.2-2.2-0.8c-0.6-0.5-0.8-1.3-0.8-2.3l0-5.6l1.8,0
		l0,5.1c0,0.7,0.1,1.3,0.4,1.6c0.3,0.3,0.7,0.5,1.3,0.5c0.7,0,1.3-0.2,1.7-0.7c0.4-0.4,0.7-1.1,0.7-1.9l0-4.6L43.3,145.7z"/>
	<path d="M46.1,143.9c-0.2-0.2-0.3-0.5-0.3-0.8s0.1-0.6,0.3-0.8s0.5-0.3,0.9-0.3s0.7,0.1,0.9,0.3c0.2,0.2,0.3,0.5,0.3,0.8
		s-0.1,0.6-0.3,0.8s-0.5,0.3-0.9,0.3C46.6,144.2,46.3,144.1,46.1,143.9z M47.9,154.2l-1.8,0l0-8.5l1.8,0L47.9,154.2z"/>
	<path d="M52.5,151.7c0,0.4,0.1,0.7,0.2,0.9c0.1,0.2,0.4,0.2,0.7,0.2c0.2,0,0.4,0,0.6,0c0.2,0,0.3-0.1,0.6-0.2l-0.2,1.5
		c-0.4,0.2-0.9,0.3-1.4,0.3c-0.8,0-1.3-0.2-1.7-0.6c-0.4-0.4-0.5-1-0.5-1.8l0-10.1l1.8,0L52.5,151.7z"/>
	<path d="M61.2,153.6c-0.3,0.2-0.6,0.4-1,0.5c-0.4,0.1-0.8,0.2-1.3,0.2c-0.8,0-1.4-0.2-1.9-0.6c-0.5-0.4-0.7-1-0.7-1.8l0-4.8l-1.6,0
		l0-1.4l1.6,0l0-2l1.8-0.5l0,2.5l3,0l0,1.4l-3,0l0,4.5c0,0.4,0.1,0.7,0.3,0.9s0.5,0.3,0.9,0.3c0.5,0,1-0.2,1.4-0.5L61.2,153.6z"/>
	<path d="M76.6,144.5l-3.8,0l0,9.6l-1.8,0l0-9.6l-3.8,0l0-1.6l9.5,0L76.6,144.5z"/>
	<path d="M83.6,146.6c0.7,0.8,1.1,1.9,1.1,3.2s-0.4,2.5-1.1,3.2s-1.8,1.2-3.1,1.2s-2.4-0.4-3.1-1.2s-1.1-1.9-1.1-3.2
		s0.4-2.5,1.1-3.2c0.7-0.8,1.8-1.2,3.1-1.2S82.8,145.8,83.6,146.6z M78.7,147.6c-0.4,0.5-0.6,1.3-0.6,2.2c0,1,0.2,1.7,0.6,2.2
		s1,0.8,1.8,0.8c0.8,0,1.4-0.3,1.8-0.8c0.4-0.5,0.6-1.3,0.6-2.2c0-1-0.2-1.7-0.6-2.2c-0.4-0.5-1-0.8-1.8-0.8
		C79.7,146.9,79.1,147.1,78.7,147.6z"/>
	<path d="M94.4,146.6c0.7,0.8,1,1.9,1,3.2c0,1.4-0.3,2.5-1,3.3c-0.7,0.8-1.6,1.2-2.7,1.2c-0.6,0-1.2-0.1-1.6-0.4
		c-0.5-0.3-0.9-0.6-1.1-1.1l0,4.9l-1.8,0l0-12.1l1.6,0l0.1,1.6c0.2-0.5,0.6-1,1.1-1.3c0.5-0.3,1.1-0.5,1.8-0.5
		C92.8,145.4,93.7,145.8,94.4,146.6z M92.9,152c0.4-0.5,0.6-1.2,0.6-2.2c0-0.9-0.2-1.7-0.6-2.2c-0.4-0.5-1-0.8-1.7-0.8
		c-0.7,0-1.2,0.2-1.7,0.7c-0.4,0.5-0.6,1.1-0.7,1.9l0,0.6c0,0.8,0.3,1.5,0.7,1.9s1,0.7,1.7,0.7C91.9,152.8,92.5,152.5,92.9,152z"/>
</g>
<line class="st3" x1="127.4" y1="177.9" x2="153.7" y2="182.9"/>
<line class="st4" x1="127.9" y1="175" x2="126.9" y2="180.8"/>
<line class="st4" x1="154.2" y1="180" x2="153.1" y2="185.8"/>
<g>
	<path class="st5" d="M133.4,186.8l-1.7,9.2l-1.5-0.3l1.3-6.8c0.1-0.3,0.1-0.6,0.2-0.7c-0.4,0.2-0.8,0.4-1.2,0.6
		c-0.4,0.1-0.9,0.2-1.3,0.2l0-1.3c0.2,0,0.6,0,1-0.1c0.4-0.1,0.8-0.2,1.2-0.4c0.4-0.2,0.7-0.4,0.9-0.6L133.4,186.8z"/>
	<path class="st5" d="M139.5,194.4l-4.7-0.9l0.3-1.4l4.7,0.9L139.5,194.4z"/>
	<path class="st5" d="M140.8,196.5c1.4-0.6,2.4-1.2,3.2-1.6c0.8-0.5,1.4-0.9,1.7-1.3c0.4-0.4,0.6-0.9,0.7-1.4c0.1-0.5,0-0.9-0.2-1.3
		c-0.3-0.4-0.6-0.6-1.2-0.7c-0.6-0.1-1.1,0-1.5,0.3c-0.4,0.3-0.7,0.8-0.9,1.5l-1.2-0.8c0.3-0.9,0.7-1.5,1.4-1.9
		c0.7-0.4,1.5-0.5,2.5-0.3c0.7,0.1,1.2,0.4,1.6,0.7c0.4,0.3,0.7,0.8,0.9,1.2c0.2,0.5,0.2,1,0.1,1.5c-0.2,0.9-0.6,1.7-1.5,2.3
		c-0.8,0.7-2.1,1.4-3.8,2l0,0c0.5,0,1,0.1,1.5,0.2l2.9,0.5l-0.2,1.3l-6.4-1.2L140.8,196.5z"/>
</g>
<g>
	<path d="M129.7,205.6l-0.2,0.9l-4.6-0.9l1.1-6.1l4.4,0.8l-0.2,0.9l-3.4-0.6l-0.3,1.8l2.7,0.5l-0.2,0.8l-2.7-0.5l-0.3,1.8
		L129.7,205.6z"/>
	<path d="M135.2,206.8l-0.2,0.7c-0.2,0-0.4,0-0.6,0c-0.3,0-0.5-0.1-0.6-0.3c-0.1-0.1-0.2-0.3-0.2-0.6c-0.2,0.2-0.4,0.3-0.7,0.4
		c-0.3,0.1-0.6,0.1-1,0c-0.5-0.1-0.8-0.3-1-0.5c-0.2-0.3-0.3-0.6-0.2-1c0.1-0.4,0.3-0.6,0.6-0.8c0.3-0.2,0.8-0.3,1.5-0.3l1.2,0
		l0-0.3c0.1-0.3,0-0.5-0.1-0.7c-0.1-0.2-0.4-0.3-0.6-0.4c-0.6-0.1-1.1,0.1-1.4,0.6l-0.7-0.6c0.2-0.3,0.5-0.6,0.8-0.8
		c0.4-0.2,0.8-0.2,1.3-0.1c0.6,0.1,1.1,0.3,1.4,0.7c0.3,0.3,0.4,0.8,0.3,1.3l-0.4,2.1c0,0.1,0,0.2,0,0.3c0,0.1,0.1,0.1,0.2,0.1
		C135,206.8,135.1,206.8,135.2,206.8z M133.2,206.2c0.3-0.1,0.5-0.3,0.5-0.6l0.1-0.6l-1,0c-0.3,0-0.6,0-0.8,0.1
		c-0.2,0.1-0.3,0.2-0.3,0.4c0,0.2,0,0.3,0.1,0.4c0.1,0.1,0.3,0.2,0.5,0.2C132.6,206.4,132.9,206.3,133.2,206.2z"/>
	<path d="M140.7,205l-1,0.2c-0.1-0.6-0.4-1-0.9-1.1c-0.4-0.1-0.8,0-1,0.2c-0.3,0.2-0.5,0.6-0.6,1.1c-0.1,0.5-0.1,0.9,0.1,1.3
		c0.2,0.3,0.5,0.5,0.9,0.6c0.3,0.1,0.6,0,0.8-0.1c0.2-0.1,0.4-0.3,0.5-0.6l0.9,0.5c-0.2,0.4-0.5,0.7-0.9,0.9
		c-0.4,0.2-0.9,0.2-1.4,0.1c-0.7-0.1-1.3-0.5-1.6-1s-0.4-1.1-0.3-1.9c0.1-0.8,0.5-1.3,0.9-1.7c0.5-0.3,1.1-0.5,1.8-0.3
		C139.9,203.5,140.5,204.1,140.7,205z"/>
	<path d="M145.8,205.1c0.3,0.4,0.4,0.8,0.2,1.4l-0.6,3l-1-0.2l0.5-2.7c0.2-0.8-0.1-1.3-0.8-1.4c-0.3-0.1-0.7,0-1,0.2
		c-0.3,0.2-0.5,0.5-0.6,1l-0.5,2.4l-1-0.2l1.3-6.7l1,0.2L143,205c0.2-0.3,0.5-0.4,0.7-0.5c0.3-0.1,0.6-0.1,0.9,0
		C145.1,204.5,145.5,204.7,145.8,205.1z"/>
	<path d="M125.3,215.1c-0.3-0.2-0.6-0.5-0.7-0.9l0.8-0.4c0.1,0.3,0.2,0.5,0.4,0.7c0.2,0.2,0.5,0.3,0.9,0.4c0.3,0.1,0.6,0.1,0.8,0
		c0.2-0.1,0.3-0.2,0.3-0.4c0-0.1,0-0.3-0.2-0.4c-0.1-0.1-0.4-0.3-0.8-0.4c-0.7-0.3-1.1-0.5-1.3-0.8c-0.2-0.3-0.3-0.6-0.2-1
		c0-0.3,0.2-0.5,0.4-0.7c0.2-0.2,0.5-0.3,0.8-0.4c0.3-0.1,0.7-0.1,1.1,0c0.5,0.1,0.9,0.3,1.2,0.5c0.3,0.2,0.5,0.5,0.6,0.9l-0.8,0.4
		c-0.1-0.3-0.2-0.5-0.4-0.7s-0.4-0.3-0.7-0.3c-0.3-0.1-0.5,0-0.7,0s-0.3,0.2-0.3,0.3c0,0.2,0,0.3,0.2,0.4c0.1,0.1,0.4,0.3,0.8,0.4
		c0.6,0.2,1.1,0.5,1.3,0.8c0.2,0.3,0.3,0.6,0.2,1c-0.1,0.4-0.3,0.7-0.7,0.9c-0.4,0.2-0.9,0.2-1.6,0.1
		C126,215.5,125.6,215.4,125.3,215.1z"/>
	<path d="M130.7,216.3l-1-0.2l0.9-4.6l1,0.2L130.7,216.3z M130.8,210.5c-0.1-0.1-0.1-0.3-0.1-0.5c0-0.2,0.1-0.3,0.3-0.4
		c0.1-0.1,0.3-0.1,0.5-0.1s0.4,0.1,0.5,0.2c0.1,0.1,0.1,0.3,0.1,0.5c0,0.2-0.1,0.3-0.3,0.4s-0.3,0.1-0.5,0.1
		S130.9,210.7,130.8,210.5z"/>
	<path d="M137.8,210.7l-1.3,6.7l-0.9-0.2l0.1-0.8c-0.2,0.3-0.4,0.4-0.7,0.6c-0.3,0.1-0.6,0.1-1,0.1c-0.6-0.1-1.1-0.4-1.4-0.9
		s-0.4-1.1-0.2-1.9c0.1-0.8,0.4-1.3,0.9-1.7c0.4-0.4,1-0.5,1.6-0.4c0.3,0.1,0.6,0.2,0.9,0.4c0.2,0.2,0.4,0.4,0.5,0.7l0.5-2.8
		L137.8,210.7z M135.4,216c0.3-0.2,0.5-0.6,0.6-1.1l0-0.1c0.1-0.5,0-0.9-0.1-1.2c-0.2-0.3-0.5-0.5-0.9-0.6c-0.4-0.1-0.7,0-1,0.2
		s-0.5,0.6-0.6,1.1s-0.1,0.9,0.1,1.3c0.2,0.3,0.5,0.5,0.9,0.6C134.8,216.3,135.2,216.3,135.4,216z"/>
	<path d="M142.6,216.5l-3.4-0.6c0,0.4,0.1,0.8,0.3,1c0.2,0.3,0.5,0.4,0.8,0.5c0.3,0.1,0.6,0,0.8,0c0.2-0.1,0.4-0.2,0.5-0.4l0.8,0.5
		c-0.5,0.7-1.2,0.9-2.2,0.7c-0.7-0.1-1.3-0.5-1.6-1c-0.3-0.5-0.4-1.1-0.3-1.9c0.1-0.8,0.5-1.3,0.9-1.7c0.5-0.3,1.1-0.5,1.8-0.3
		c0.7,0.1,1.2,0.4,1.5,0.9c0.3,0.5,0.4,1.1,0.3,1.8C142.7,216.2,142.6,216.3,142.6,216.5z M139.9,214.3c-0.3,0.2-0.5,0.5-0.6,0.8
		l2.5,0.5c0-0.4,0-0.7-0.2-1c-0.2-0.3-0.4-0.4-0.8-0.5C140.5,214,140.2,214.1,139.9,214.3z"/>
</g>
</svg>
